<svg height="1366.328" viewBox="0 0 1842.121 1366.328" width="1842.121" xmlns="http://www.w3.org/2000/svg"><path d="m1575.964 1366.328s76.561-135.617-33.225-271.234c-252.796 59.226-561.779 271.234-561.779 271.234z" fill="#fae2ce"/><path d="m1501.541 1364.711c-.868 0-1.747-.226-2.547-.701-2.375-1.41-3.157-4.477-1.748-6.852 26.89-45.304 38.098-131.208 11.187-182.04-1.292-2.44-.361-5.466 2.08-6.758s5.466-.361 6.758 2.08c28.886 54.562 17.413 143.236-11.425 191.823-.935 1.574-2.598 2.449-4.305 2.449z" fill="#3c191e"/><path d="m1525.46 1295.201c-.054 0-.108 0-.164-.002-21.731-.698-53.329-5.801-80.445-26.149-26.532-19.91-42.851-49.776-48.503-88.769-.396-2.733 1.498-5.27 4.231-5.666 2.728-.393 5.27 1.498 5.666 4.231 13.476 92.968 87.97 105.35 119.373 106.358 2.76.089 4.925 2.398 4.837 5.158-.087 2.705-2.308 4.839-4.995 4.839z" fill="#3c191e"/><path d="m1816.653 939.519-223.508 116.209-339.933 280.606-427.586 6.16-316.356-206.952 199.092-618.095c12.95-40.203 51.167-66.797 93.365-64.969l209.191 9.066 382.081-120.157c74.821-23.638 155.808 9.905 192.005 79.523l231.648 518.61z" fill="#3c191e"/><path d="m1776.085 1127.127-480.421 207.024-192.817-183.676 665.751-303.383 59.681 114.787c31.219 60.045 7.852 134.029-52.193 165.249z" fill="#3c191e"/><path d="m1121.939 1141.581c-1.969 0-3.836-1.171-4.629-3.107-1.047-2.555.177-5.475 2.732-6.521l418.279-171.284-155.749-330.319c-1.178-2.498-.108-5.477 2.39-6.655 2.498-1.177 5.477-.108 6.655 2.39l157.995 335.083c.585 1.24.635 2.666.138 3.944s-1.497 2.296-2.766 2.815l-423.152 173.279c-.62.254-1.262.375-1.893.375z" fill="#fae2ce"/><path d="m1019.918 770.016c-2.761 0-5-2.239-5-5v-244.851c0-2.761 2.239-5 5-5s5 2.239 5 5v244.851c0 2.761-2.239 5-5 5z" fill="#fae2ce"/><circle cx="985.971" cy="640.062" fill="#fae2ce" r="8.667"/><circle cx="985.971" cy="721.679" fill="#fae2ce" r="8.667"/><path d="m1004.232 417.987-39.915 41.537 20.931 128.173 34.67-67.532 54.892 91.728 123.148-172.623-78.56-60.335z" fill="#3c191e"/><path d="m1545.089 968.301c-1.997 0-3.806-1.189-4.595-3.03-.803-1.873-.388-4.046 1.048-5.493l44.226-44.536c1.946-1.96 5.112-1.97 7.071-.025 1.959 1.946 1.971 5.112.025 7.071l-35.504 35.753 75.58-1.59c2.73-.034 5.045 2.133 5.104 4.894.058 2.761-2.133 5.046-4.894 5.104l-87.954 1.85c-.035 0-.07 0-.105 0z" fill="#fae2ce"/><path d="m713.436 1271.245c-.302 0-.607-.027-.914-.084-2.715-.501-4.51-3.11-4.008-5.825l100.64-544.565c.502-2.715 3.108-4.511 5.825-4.008 2.715.501 4.51 3.11 4.008 5.825l-100.64 544.565c-.445 2.408-2.547 4.092-4.911 4.092z" fill="#fae2ce"/><path d="m994.638 355.486 25.28 164.679 106.402-96.063-27.675-180.568z" fill="#ba5534"/><path d="m1001.297 398.864c15.501-37.88 39.118-64.01 67.374-92.486 0 51.089-28.255 92.797-62.426 126.464-2.012-14.855-4.948-33.978-4.948-33.978z" fill="#3c191e"/><path d="m914.466 48.52c-68.883 7.929-156.011 107.258-120.259 219.932 33.712 106.245 115.995 152.325 169.012 146.26 63.288-7.239 127.133-118.353 135.426-171.179 9.751-62.11-33.586-212.348-184.18-195.014z" fill="#ba5534"/><path d="m792.71 263.49c11.032-4.002 25.847-9.952 25.847-9.952-4.771-19.748-.248-36.772 7.289-53.762 3.671 22.517 17.246 47.821 34.17 57.692 29.263-24.929 40.04-69.575 45.782-89.967 3.611 24.751-5.594 61.587-5.594 61.587 41.72-26.675 47.486-60.671 51.098-74.394 10.723 17.85 13.015 34.436 13.015 34.436 34.456-8.217 61.193.391 87.341 29.667 17.505-8.092 44.098-6.803 41.209 31.959 12.038 14.686 13.335 42.081 13.335 42.081 55.04-146.33-46.333-271.446-191.736-244.318-109.063 20.348-152.251 143.939-121.756 214.969z" fill="#d2c1f0"/><path d="m851.77 19.304c2.579 19.335 14.294 32.184 29.695 37.063-9.738-20.779 20.001-46.453 49.062-56.366-3.86 31.826-16.062 48.52-26.974 63.652-17.217 2.609-25.257 18.111-25.257 18.111-30.917-5.328-38.656-29.198-26.526-62.46z" fill="#d2c1f0"/><path d="m1051.658 218.798c-7.183-46.047 34.255-72.048 61.433-47.491 27.471 24.823 7.945 66.449-20.224 79.45-21.668-17.335-41.209-31.959-41.209-31.959z" fill="#ba5534"/><path d="m1068.787 234.811c-2.633 0-4.838-2.058-4.988-4.72-1.574-28.07 11.732-49.756 34.724-56.595 2.648-.786 5.431.72 6.218 3.367s-.72 5.431-3.367 6.218c-18.597 5.531-28.912 22.896-27.591 46.45.155 2.757-1.955 5.118-4.712 5.272-.095.005-.19.008-.284.008z" fill="#3c191e"/><path d="m1099.35 216.535c-.985 0-1.979-.29-2.849-.895-.107-.074-12.1-8.169-23.403-4.565-2.631.84-5.444-.614-6.283-3.244-.839-2.631.614-5.444 3.244-6.283 16.053-5.118 31.499 5.429 32.148 5.88 2.268 1.576 2.828 4.692 1.252 6.959-.971 1.398-2.528 2.147-4.11 2.147z" fill="#3c191e"/><path d="m1074.811 616.893c-.067 0-.134-.001-.201-.004-1.686-.068-3.223-.981-4.09-2.429l-50.268-84-30.556 59.52c-.986 1.92-3.093 2.995-5.226 2.655-2.133-.336-3.809-2.002-4.157-4.133l-20.932-128.173c-.445-2.725 1.403-5.295 4.129-5.74 2.725-.443 5.295 1.403 5.74 4.129l18.484 113.186 27.734-54.023c.83-1.616 2.47-2.655 4.286-2.714 1.82-.053 3.52.872 4.453 2.43l50.969 85.172 115.907-162.474-27.46-21.09c-2.19-1.682-2.602-4.821-.92-7.011s4.821-2.603 7.011-.92l31.288 24.03c2.136 1.64 2.589 4.677 1.025 6.869l-123.148 172.624c-.94 1.318-2.458 2.096-4.07 2.096z" fill="#fae2ce"/><rect fill="#ba5534" height="54.004" rx="27.002" transform="matrix(-1 0 -0 -1 2118.679 2630.983)" width="251.476" x="933.602" y="1288.489"/><path d="m1090.975 1220.403-54.127-54.127-14.237-14.237c-13.227-13.227-34.673-13.227-47.9 0l-14.237 14.237-60.27 60.27c-10.545 10.545-10.545 27.641 0 38.186 10.545 10.545 27.642 10.545 38.186 0l48.505-48.505c6.498-6.498 17.033-6.498 23.531 0l42.362 42.362 38.186-38.187z" fill="#ba5534"/><path d="m1022.286 1282.163 22.843 33.474c11.467 16.804 30.497 26.856 50.841 26.856h171.867c39.304 0 63.668-42.779 43.617-76.583l-82.317-138.783-51.159 34.27-155.692 120.767z" fill="#ba5534"/><rect fill="#ba5534" height="54.004" rx="27.002" transform="matrix(-.18614679 .98252195 -.98252195 -.18614679 2593.637 241.01)" width="159.647" x="1117.178" y="1167.69"/><rect fill="#ba5534" height="54.004" rx="27.002" transform="matrix(-.41870729 .90812125 -.90812125 -.41870729 2704.775 720.035)" width="172.6" x="1035.637" y="1198.691"/><rect fill="#ba5534" height="54.004" rx="27.002" transform="matrix(-.41870729 .90812125 -.90812125 -.41870729 2618.2 751.624)" width="195.677" x="970.701" y="1186.777"/><g fill="#3c191e"><path d="m1187.181 1278.595c-1.969 0-3.966-.183-5.97-.563-8.399-1.591-15.675-6.358-20.489-13.422s-6.588-15.58-4.997-23.978l13.495-71.227c.514-2.713 3.133-4.496 5.843-3.982 2.713.514 4.496 3.13 3.982 5.843l-13.495 71.227c-1.094 5.774.126 11.629 3.436 16.486 3.309 4.856 8.312 8.134 14.086 9.228 11.92 2.257 23.455-5.602 25.713-17.521l13.117-69.235c.514-2.713 3.13-4.495 5.843-3.982 2.713.514 4.496 3.13 3.982 5.843l-13.117 69.235c-2.905 15.333-16.364 26.048-31.43 26.048z"/><path d="m1097.06 1311.544c-4.479 0-9.024-.943-13.351-2.938-16.025-7.388-23.051-26.437-15.663-42.461l49.657-107.701c1.156-2.507 4.127-3.603 6.634-2.447 2.508 1.156 3.603 4.126 2.447 6.634l-49.657 107.7c-5.079 11.017-.249 24.113 10.768 29.193 11.018 5.079 24.113.249 29.193-10.768l49.657-107.701c1.156-2.508 4.126-3.602 6.634-2.447 2.508 1.156 3.603 4.126 2.447 6.634l-49.657 107.701c-5.393 11.697-17.002 18.601-29.11 18.601z"/><path d="m1031.413 1234.807c-.701 0-1.412-.148-2.09-.46-2.508-1.156-3.603-4.126-2.447-6.634l19.886-43.13c1.156-2.508 4.127-3.603 6.634-2.447 2.508 1.156 3.603 4.126 2.447 6.634l-19.886 43.13c-.844 1.83-2.653 2.907-4.544 2.907z"/><path d="m1038.831 1310.108c-4.479 0-9.024-.944-13.351-2.939-5.697-2.627-10.454-6.819-13.757-12.125-1.459-2.344-.742-5.428 1.602-6.887 2.344-1.458 5.427-.743 6.887 1.602 2.268 3.643 5.537 6.522 9.455 8.329 11.017 5.079 24.113.249 29.193-10.769l59.319-128.656c1.156-2.508 4.126-3.603 6.634-2.447s3.603 4.126 2.447 6.634l-59.319 128.656c-5.394 11.698-17.002 18.602-29.11 18.602z"/><path d="m1244.436 1277.641c-1.707 0-3.371-.875-4.305-2.45l-24.874-41.929c-1.409-2.375-.626-5.442 1.749-6.852 2.375-1.409 5.442-.625 6.851 1.749l24.874 41.929c1.409 2.375.626 5.442-1.749 6.852-.8.475-1.679.701-2.546.701z"/><path d="m1075.843 1342.852c-.502 0-1.013-.076-1.517-.237-24.495-7.793-33.76-24.904-39.295-35.127-1.315-2.428-.412-5.463 2.016-6.778 2.428-1.314 5.463-.411 6.777 2.016 5.129 9.473 12.88 23.789 33.533 30.359 2.632.837 4.086 3.649 3.249 6.281-.677 2.127-2.644 3.485-4.763 3.485z"/></g><path d="m787.609 794.328h-739.933c-33.643 0-56.682 33.934-44.269 65.203l191.721 482.962h888.396s-188.711-475.38-188.711-475.38c-17.442-43.938-59.93-72.785-107.204-72.785z" fill="#d2c1f0"/><path d="m195.128 1342.493v23.835h1269.636c-2.408-14.325-19.863-23.835-31.539-23.835z" fill="#d2c1f0"/><path d="m195.128 1342.493h888.396v23.835h-888.396z" fill="#d2c1f0"/><path d="m510.571 1181.27c-11.217 0-23.231-4.632-34.958-13.653-16.079-12.369-29.873-31.694-38.841-54.417-8.968-22.723-12.089-46.26-8.791-66.275 3.451-20.941 13.503-35.69 28.303-41.532 14.801-5.841 32.216-1.931 49.038 11.009 16.079 12.369 29.873 31.694 38.841 54.417s12.089 46.26 8.791 66.275c-3.451 20.941-13.503 35.69-28.303 41.532-4.482 1.769-9.207 2.644-14.08 2.644zm-64.497-71.74c8.313 21.065 20.969 38.879 35.636 50.161 13.924 10.711 27.87 14.131 39.27 9.633 11.4-4.499 19.251-16.522 22.107-33.856 3.009-18.257.087-39.914-8.226-60.979s-20.969-38.879-35.636-50.161c-13.924-10.711-27.87-14.131-39.27-9.633-11.4 4.499-19.251 16.522-22.107 33.856-3.009 18.257-.087 39.914 8.226 60.979z" fill="#3c191e"/></svg>