<svg height="501" viewBox="0 0 326.859 500.445" width="327" xmlns="http://www.w3.org/2000/svg" xmlns:xlink="http://www.w3.org/1999/xlink"><linearGradient id="a" gradientUnits="userSpaceOnUse" x1="173.088" x2="169.939" y1="92.331" y2="331.232"><stop offset="0" stop-color="#111"/><stop offset=".732" stop-color="#3658c1"/></linearGradient><path d="m325.859 499.444-151.392-295.624-123.116 124.109 274.508 171.516z" fill="#fff"/><path d="m325.859 500.444a1.006 1.006 0 0 1 -.53-.151l-274.508-171.516a1 1 0 0 1 -.18-1.552l123.116-124.11a1 1 0 0 1 1.6.249l151.392 295.625a1 1 0 0 1 -.89 1.455zm-272.916-172.699 270.376 168.933-149.114-291.178z" fill="#111"/><path d="m174.467 203.82 115.806-1.696 35.586 297.321z" fill="#fff"/><path d="m325.859 500.445a1 1 0 0 1 -.89-.545l-151.393-295.625a1 1 0 0 1 .876-1.455l115.806-1.7a1.017 1.017 0 0 1 1.008.881l35.586 297.321a1 1 0 0 1 -.7 1.075 1.019 1.019 0 0 1 -.293.048zm-149.769-295.645 148.11 289.215-34.813-290.878z" fill="#111"/><path d="m167.157 326.234-115.806 1.695 274.508 171.516z" fill="#fff"/><path d="m325.858 500.444a1 1 0 0 1 -.529-.151l-274.508-171.516a1 1 0 0 1 .515-1.848l115.806-1.695a1.016 1.016 0 0 1 .752.324l158.706 173.211a1 1 0 0 1 -.738 1.675zm-271.099-171.565 265.4 165.821-153.436-167.459z" fill="#111"/><path d="m325.859 499.444-158.702-173.21 123.116-124.11 35.586 297.321z" fill="#b0c3ff"/><path d="m325.859 500.444a1 1 0 0 1 -.737-.324l-158.702-173.211a1 1 0 0 1 .027-1.379l123.116-124.11a1 1 0 0 1 1.7.585l35.586 297.321a1 1 0 0 1 -.993 1.118zm-157.321-174.183 155.962 170.216-34.974-292.177z" fill="#111"/><path d="m174.467 203.82 115.806-1.696-123.116 124.11-115.806 1.695z" fill="url(#a)"/><path d="m51.351 328.929a1 1 0 0 1 -.71-1.7l123.116-124.11a1 1 0 0 1 .695-.3l115.806-1.7a1.021 1.021 0 0 1 .935.609 1 1 0 0 1 -.21 1.1l-123.116 124.11a1 1 0 0 1 -.695.3l-115.807 1.691zm123.538-124.115-121.102 122.079 112.947-1.653 121.1-122.08z" fill="#111"/><path d="m35.169 301.5 125.86-131.372 113.503 3.742-125.872 124.857z" fill="#fff"/><path d="m35.169 302.5a1 1 0 0 1 -.722-1.692l125.86-131.372a1.011 1.011 0 0 1 .755-.308l113.5 3.743a1 1 0 0 1 .671 1.709l-125.869 124.857a1 1 0 0 1 -.68.29l-113.49 2.773zm126.273-131.358-123.873 129.299 110.669-2.7 123.943-122.948z" fill="#111"/><path d="m1 1q17.085 150.257 34.169 300.5l125.86-131.372z" fill="#fff"/><path d="m35.169 302.5a1 1 0 0 1 -.993-.887l-34.169-300.5a1 1 0 0 1 1.719-.8l160.029 169.128a1 1 0 0 1 0 1.379l-125.863 131.372a1 1 0 0 1 -.723.308zm-32.837-298.637 33.59 295.406 123.726-129.146z" fill="#111"/><path d="m274.532 173.87-113.503-3.742-160.029-169.128z" fill="#fff"/><path d="m274.532 174.87h-.032l-113.5-3.743a1 1 0 0 1 -.694-.312l-160.032-169.128a1 1 0 0 1 1.26-1.532l273.532 172.87a1 1 0 0 1 -.534 1.845zm-113.059-5.728 109.414 3.608-263.678-166.643z" fill="#111"/><path d="m35.169 301.5 113.491-2.773-147.66-297.727z" fill="#fff"/><path d="m35.169 302.5a1 1 0 0 1 -.993-.887l-34.169-300.5a1 1 0 0 1 1.893-.557l147.66 297.727a1 1 0 0 1 -.872 1.444l-113.494 2.773zm-32.531-295.947 33.421 293.925 111.008-2.712z" fill="#111"/><path d="m1 1 147.66 297.727 125.872-124.857z" fill="#b0c3ff"/><path d="m148.66 299.727a1.016 1.016 0 0 1 -.164-.013 1 1 0 0 1 -.732-.542l-147.664-297.728a1 1 0 0 1 1.434-1.289l273.532 172.87a1 1 0 0 1 .17 1.555l-125.872 124.857a1 1 0 0 1 -.704.29zm-145.179-295.976 145.459 293.29 124-123z" fill="#111"/></svg>